HIERARCHY
ROOT Hips
{
	OFFSET 0.000000 0.000000 0.000000
	CHANNELS 6 Xposition Yposition Zposition Zrotation Yrotation Xrotation 
	JOINT LHipJoint
	{
		OFFSET 0.000000 0.000000 0.000000
		CHANNELS 3 Zrotation Yrotation Xrotation
		JOINT LeftUpLeg
		{
			OFFSET 1.363060 -1.794630 0.839290
			CHANNELS 3 Zrotation Yrotation Xrotation
			JOINT LeftLeg
			{
				OFFSET 2.448110 -6.726130 0.000000
				CHANNELS 3 Zrotation Yrotation Xrotation
				JOINT LeftFoot
				{
					OFFSET 2.562200 -7.039590 0.000000
					CHANNELS 3 Zrotation Yrotation Xrotation
					JOINT LeftToeBase
					{
						OFFSET 0.157640 -0.433110 2.322550
						CHANNELS 3 Zrotation Yrotation Xrotation
						End Site
						{
							OFFSET 0.000000 0.000000 0.000000
						}
					}
				}
			}
		}
	}
	JOINT RHipJoint
	{
		OFFSET 0.000000 0.000000 0.000000
		CHANNELS 3 Zrotation Yrotation Xrotation
		JOINT RightUpLeg
		{
			OFFSET -1.305520 -1.794630 0.839290
			CHANNELS 3 Zrotation Yrotation Xrotation
			JOINT RightLeg
			{
				OFFSET -2.542530 -6.985550 0.000000
				CHANNELS 3 Zrotation Yrotation Xrotation
				JOINT RightFoot
				{
					OFFSET -2.568260 -7.056230 0.000000
					CHANNELS 3 Zrotation Yrotation Xrotation
					JOINT RightToeBase
					{
						OFFSET -0.164730 -0.452590 2.363150
						CHANNELS 3 Zrotation Yrotation Xrotation
						End Site
						{
							OFFSET 0.000000 0.000000 0.000000
						}
					}
				}
			}
		}
	}
	JOINT LowerBack
	{
		OFFSET 0.000000 0.000000 0.000000
		CHANNELS 3 Zrotation Yrotation Xrotation
		JOINT Spine
		{
			OFFSET 0.028270 2.035590 -0.193380
			CHANNELS 3 Zrotation Yrotation Xrotation
			JOINT Spine1
			{
				OFFSET 0.056720 2.048850 -0.042750
				CHANNELS 3 Zrotation Yrotation Xrotation
				JOINT Neck
				{
					OFFSET 0.000000 0.000000 0.000000
					CHANNELS 3 Zrotation Yrotation Xrotation
					JOINT Neck1
					{
						OFFSET -0.054170 1.746240 0.172020
						CHANNELS 3 Zrotation Yrotation Xrotation
						JOINT Head
						{
							OFFSET 0.104070 1.761360 -0.123970
							CHANNELS 3 Zrotation Yrotation Xrotation
							End Site
							{
								OFFSET 0.000000 0.000000 0.000000
							}
						}
					}
				}
				JOINT LeftShoulder
				{
					OFFSET 0.000000 0.000000 0.000000
					CHANNELS 3 Zrotation Yrotation Xrotation
					JOINT LeftArm
					{
						OFFSET 3.362410 1.200890 -0.311210
						CHANNELS 3 Zrotation Yrotation Xrotation
						JOINT LeftForeArm
						{
							OFFSET 4.983000 -0.000000 -0.000000
							CHANNELS 3 Zrotation Yrotation Xrotation
							JOINT LeftHand
							{
								OFFSET 3.483560 -0.000000 -0.000000
								CHANNELS 3 Zrotation Yrotation Xrotation
								JOINT LeftFingerBase
								{
									OFFSET 0.000000 0.000000 0.000000
									CHANNELS 3 Zrotation Yrotation Xrotation
									JOINT LeftHandIndex1
									{
										OFFSET 0.715260 -0.000000 -0.000000
										CHANNELS 3 Zrotation Yrotation Xrotation
										End Site
										{
											OFFSET 0.000000 0.000000 0.000000
										}
									}
								}
								JOINT LThumb
								{
									OFFSET 0.000000 0.000000 0.000000
									CHANNELS 3 Zrotation Yrotation Xrotation
									End Site
									{
										OFFSET 0.000000 0.000000 0.000000
									}
								}
							}
						}
					}
				}
				JOINT RightShoulder
				{
					OFFSET 0.000000 0.000000 0.000000
					CHANNELS 3 Zrotation Yrotation Xrotation
					JOINT RightArm
					{
						OFFSET -3.136600 1.374050 -0.404650
						CHANNELS 3 Zrotation Yrotation Xrotation
						JOINT RightForeArm
						{
							OFFSET -5.241900 -0.000000 -0.000000
							CHANNELS 3 Zrotation Yrotation Xrotation
							JOINT RightHand
							{
								OFFSET -3.444170 -0.000000 -0.000000
								CHANNELS 3 Zrotation Yrotation Xrotation
								JOINT RightFingerBase
								{
									OFFSET 0.000000 0.000000 0.000000
									CHANNELS 3 Zrotation Yrotation Xrotation
									JOINT RightHandIndex1
									{
										OFFSET -0.622530 -0.000000 -0.000000
										CHANNELS 3 Zrotation Yrotation Xrotation
										End Site
										{
											OFFSET 0.000000 0.000000 0.000000
										}
									}
								}
								JOINT RThumb
								{
									OFFSET 0.000000 0.000000 0.000000
									CHANNELS 3 Zrotation Yrotation Xrotation
									End Site
									{
										OFFSET 0.000000 0.000000 0.000000
									}
								}
							}
						}
					}
				}
			}
		}
	}
}
MOTION
Frames: 6
Frame Time: 0.008333
4.107008 17.607298 -0.138325 -8.370386 82.202779 14.032010 -10.479138 1.013216 0.684670 -7.759447 1.947090 -19.704778 -2.033198 -0.726612 9.124791 0.998361 6.169348 -3.131427 0.611001 0.000000 -40.153300 9.717816 -0.026182 -1.094685 10.488500 -2.779257 -43.349896 0.292279 -3.716755 51.481579 -1.723593 -7.961445 -1.291822 -1.309400 0.000001 -49.205800 -1.115122 -1.841600 1.535367 -1.077797 -1.792503 -2.661335 -7.270589 -1.891408 0.325897 10.085725 -1.524124 -4.248919 -3.567175 -0.284669 0.725665 0.000000 0.000000 0.000000 -6.640925 1.855505 3.710896 -55.159800 -17.717857 16.228024 -4.009833 -42.100155 0.025478 -10.228502 -0.210693 0.031292 -0.091085 0.127264 0.000000 0.000000 0.000000 0.000000 0.000000 0.000000 0.000000 15.235893 0.363645 1.712536 60.015178 11.599860 -0.268145 2.674493 37.022411 0.019277 4.015313 10.488040 0.372395 0.033850 -0.173545 -0.000000 0.000000 0.000000 0.000000 0.000000 0.000000 0.000000 
4.376600 17.611263 -0.115734 -9.155966 82.695123 13.106124 -10.577609 1.131195 0.531926 -7.584804 2.528366 -18.203737 -2.059751 -0.723046 8.326246 0.877448 5.512048 -2.673557 0.589800 -0.000000 -41.045900 9.532170 0.050255 -0.914641 10.750309 -2.421846 -44.169275 0.578795 -3.560586 48.582444 -1.616593 -7.281810 -1.413420 -1.253000 -0.000000 -50.392500 -0.659013 -2.061580 1.557508 -0.996952 -2.040358 -2.644370 -7.393474 -2.135279 0.331302 10.333153 -1.711362 -4.191341 -3.612190 -0.288122 0.745285 0.000000 0.000000 0.000000 -5.959219 1.365277 3.742614 -54.283508 -19.091157 16.815522 -3.840145 -44.637973 0.028211 -10.206842 -0.309556 0.041331 -0.083262 0.141890 0.000000 0.000000 0.000000 0.000000 0.000000 0.000000 0.000000 15.675827 0.031599 1.753478 60.546410 10.634637 -0.749557 2.734711 35.974385 0.019104 4.080101 10.373973 0.373987 0.035500 -0.165201 -0.000000 0.000000 0.000000 0.000000 0.000000 0.000000 0.000000 
4.646277 17.603635 -0.087644 -8.986120 83.272481 13.150810 -10.655313 1.245057 0.383652 -7.492507 2.985950 -16.766924 -2.093128 -0.715714 7.677504 0.769039 4.883991 -2.311481 0.556000 0.000000 -41.901400 9.365313 0.132082 -0.709884 10.775490 -2.100362 -44.896468 0.874428 -3.373917 45.409074 -1.510841 -6.637291 -1.385634 -1.222300 0.000000 -51.175200 -0.355039 -2.307987 1.552368 -0.946702 -2.307302 -2.627321 -7.510392 -2.397369 0.350995 10.600984 -1.968906 -4.150943 -3.655619 -0.291428 0.760250 0.000000 0.000000 0.000000 -5.200065 0.859937 3.767908 -53.237164 -20.447341 17.259941 -3.653248 -47.176060 0.030940 -10.186004 -0.375369 0.048458 -0.074459 0.157075 0.000000 0.000000 0.000000 0.000000 0.000000 0.000000 0.000000 16.143090 -0.383853 1.789320 60.988006 9.622545 -0.947257 2.790114 35.194667 0.019017 4.258480 10.238208 0.384979 0.036245 -0.156554 -0.000000 0.000000 0.000000 0.000000 0.000000 0.000000 0.000000 
4.915782 17.584716 -0.054038 -7.574887 83.932133 14.451163 -10.715492 1.348786 0.235578 -7.477848 3.316214 -15.365001 -2.132902 -0.708352 7.146440 0.671602 4.285487 -2.048690 0.512700 0.000000 -42.792900 9.217387 0.220860 -0.481082 10.556930 -1.816270 -45.540603 1.170312 -3.152369 41.990212 -1.411989 -6.064568 -1.209371 -1.218700 -0.000000 -51.413200 -0.203406 -2.577357 1.528996 -0.927812 -2.589994 -2.607887 -7.619925 -2.673967 0.386440 10.886305 -2.310651 -4.135003 -3.696843 -0.294477 0.768395 0.000000 0.000000 0.000000 -4.366228 0.347801 3.783970 -52.028921 -21.804240 17.543168 -3.450048 -49.680040 0.033713 -10.176838 -0.416123 0.053476 -0.064422 0.172823 0.000000 0.000000 0.000000 0.000000 0.000000 0.000000 0.000000 16.634885 -0.895387 1.817784 61.349873 8.572731 -0.867375 2.839851 34.694798 0.018976 4.540539 10.092763 0.404571 0.036173 -0.147787 -0.000000 0.000000 0.000000 0.000000 0.000000 0.000000 0.000000 
5.184945 17.554808 -0.015201 -4.504166 84.670097 17.427229 -10.759132 1.434282 0.082100 -7.530034 3.527635 -13.977908 -2.179092 -0.704817 6.709829 0.581889 3.704382 -1.883235 0.461900 0.000000 -43.798400 9.090377 0.313440 -0.226196 10.098347 -1.572105 -46.117805 1.457525 -2.893516 38.358274 -1.324729 -5.589208 -0.895429 -1.242100 0.000000 -51.136400 -0.189231 -2.867627 1.494673 -0.938075 -2.887352 -2.585467 -7.719304 -2.963888 0.434453 11.181925 -2.736444 -4.145009 -3.734535 -0.297177 0.769276 0.000000 0.000000 0.000000 -3.461657 -0.175419 3.788007 -50.673756 -23.157232 17.642018 -3.231245 -52.123915 0.036580 -10.187623 -0.436392 0.056882 -0.052834 0.189161 -0.000000 0.000000 0.000000 0.000000 0.000000 0.000000 0.000000 17.137944 -1.502130 1.837751 61.646391 7.479833 -0.547815 2.882126 34.481149 0.018942 4.910851 9.948123 0.431263 0.035356 -0.139116 -0.000000 0.000000 0.000000 0.000000 0.000000 0.000000 0.000000 
5.453583 17.514327 0.028267 0.847526 85.480658 22.699924 -10.777289 1.492500 -0.085724 -7.629743 3.639677 -12.586789 -2.232117 -0.708960 6.349654 0.495821 3.120640 -1.805721 0.405800 0.000000 -44.984199 8.993546 0.404457 0.057662 9.415197 -1.373498 -46.641023 1.727269 -2.597001 34.543577 -1.251990 -5.220153 -0.468127 -1.288999 0.000000 -50.465800 -0.275351 -3.179059 1.459791 -0.971117 -3.201676 -2.558388 -7.806136 -3.269149 0.494320 11.479450 -3.252273 -4.185000 -3.767362 -0.299393 0.761752 0.000000 0.000000 0.000000 -2.496627 -0.706791 3.776571 -49.185839 -24.509247 17.538737 -2.999196 -54.479773 0.039608 -10.225575 -0.443113 0.059275 -0.039411 0.206152 -0.000000 0.000000 0.000000 0.000000 0.000000 0.000000 0.000000 17.638686 -2.211398 1.848341 61.885230 6.359729 -0.025113 2.915949 34.539611 0.018879 5.341803 9.819967 0.463155 0.033978 -0.130765 -0.000000 0.000000 0.000000 0.000000 0.000000 0.000000 0.000000 
